<svg width="88" height="48" viewBox="0 0 88 48" fill="none" xmlns="http://www.w3.org/2000/svg">
<path d="M7.19922 37V10.8438H10.3633L20.0488 32.9395L29.4707 10.8438H32.5117V37H30.2793V19.4043L30.4023 13.4629L29.752 15.5723L21.1562 35.5059H18.6953L9.99414 15.5195L9.30859 13.4102L9.43164 19.4922V37H7.19922ZM49.102 37.4043C47.098 37.4043 45.3109 37.0645 43.7406 36.3848C42.1703 35.6934 40.8871 34.7383 39.891 33.5195C38.9066 32.3008 38.1566 30.8711 37.641 29.2305C37.1371 27.5898 36.8852 25.791 36.8852 23.834C36.8852 21.2324 37.3598 18.9297 38.309 16.9258C39.2699 14.9102 40.6996 13.3164 42.598 12.1445C44.4965 10.9727 46.7406 10.3867 49.3305 10.3867C52.1781 10.3867 54.6039 10.9844 56.6078 12.1797L55.5355 13.9199C53.7074 12.8184 51.6449 12.2676 49.348 12.2676C47.7426 12.2676 46.3012 12.5723 45.0238 13.1816C43.7465 13.7793 42.6977 14.6113 41.8773 15.6777C41.0688 16.7441 40.4477 17.9805 40.0141 19.3867C39.5922 20.793 39.3813 22.3164 39.3813 23.957C39.3813 25.5625 39.5746 27.0508 39.9613 28.4219C40.3598 29.7812 40.9516 31 41.7367 32.0781C42.5336 33.1445 43.5883 33.9883 44.9008 34.6094C46.2133 35.2188 47.725 35.5234 49.4359 35.5234C51.2758 35.5234 53.3266 35.0137 55.5883 33.9941L56.0453 35.8047C54.3344 36.8711 52.0199 37.4043 49.102 37.4043ZM70.948 37.4043C69.3543 37.4043 67.8836 37.1816 66.5359 36.7363C65.2 36.2793 64.0457 35.6465 63.073 34.8379C62.1004 34.0293 61.2742 33.0684 60.5945 31.9551C59.9266 30.8301 59.4227 29.5996 59.0828 28.2637C58.7547 26.916 58.5906 25.4922 58.5906 23.9922C58.5906 21.3555 59.0828 19.0234 60.0672 16.9961C61.0516 14.957 62.5164 13.3457 64.4617 12.1621C66.4188 10.9785 68.7332 10.3867 71.4051 10.3867C74.3348 10.3867 76.9363 11.0605 79.2098 12.4082L78.2078 14.2188C77.2469 13.6328 76.157 13.1641 74.9383 12.8125C73.7313 12.4492 72.5594 12.2676 71.4227 12.2676C69.7117 12.2676 68.1824 12.5723 66.8348 13.1816C65.4988 13.791 64.4148 14.6348 63.5828 15.7129C62.7508 16.7793 62.118 18.0098 61.6844 19.4043C61.2625 20.7988 61.0516 22.3164 61.0516 23.957C61.0516 25.7031 61.2684 27.2793 61.702 28.6855C62.1355 30.0918 62.7859 31.3105 63.6531 32.3418C64.5203 33.3613 65.6336 34.1523 66.993 34.7148C68.3523 35.2656 69.9227 35.541 71.7039 35.541C73.5438 35.541 75.5711 35.1016 77.7859 34.2227V25.8555H71.2996L71.4402 23.9043H79.8777V35.4355C78.448 36.1738 77.0594 36.6895 75.7117 36.9824C74.3758 37.2637 72.7879 37.4043 70.948 37.4043Z" fill="white"/>
<path d="M7.19922 37H6.19922V38H7.19922V37ZM7.19922 10.8438V9.84375H6.19922V10.8438H7.19922ZM10.3633 10.8438L11.2792 10.4423L11.0168 9.84375H10.3633V10.8438ZM20.0488 32.9395L19.133 33.3409L20.0615 35.4592L20.9687 33.3317L20.0488 32.9395ZM29.4707 10.8438V9.84375H28.81L28.5508 10.4515L29.4707 10.8438ZM32.5117 10.8438H33.5117V9.84375H32.5117V10.8438ZM32.5117 37V38H33.5117V37H32.5117ZM30.2793 37H29.2793V38H30.2793V37ZM30.2793 19.4043L29.2795 19.3836L29.2793 19.3939V19.4043H30.2793ZM30.4023 13.4629L31.4021 13.4836L29.4467 13.1682L30.4023 13.4629ZM29.752 15.5723L30.6702 15.9682L30.6916 15.9186L30.7076 15.8669L29.752 15.5723ZM21.1562 35.5059V36.5059H21.814L22.0745 35.9018L21.1562 35.5059ZM18.6953 35.5059L17.7784 35.905L18.04 36.5059H18.6953V35.5059ZM9.99414 15.5195L9.04311 15.8286L9.05801 15.8745L9.07726 15.9187L9.99414 15.5195ZM9.30859 13.4102L10.2596 13.1011L8.3088 13.4304L9.30859 13.4102ZM9.43164 19.4922H10.4316V19.4821L10.4314 19.472L9.43164 19.4922ZM9.43164 37V38H10.4316V37H9.43164ZM8.19922 37V10.8438H6.19922V37H8.19922ZM7.19922 11.8438H10.3633V9.84375H7.19922V11.8438ZM9.44741 11.2452L19.133 33.3409L20.9647 32.538L11.2792 10.4423L9.44741 11.2452ZM20.9687 33.3317L30.3906 11.236L28.5508 10.4515L19.129 32.5472L20.9687 33.3317ZM29.4707 11.8438H32.5117V9.84375H29.4707V11.8438ZM31.5117 10.8438V37H33.5117V10.8438H31.5117ZM32.5117 36H30.2793V38H32.5117V36ZM31.2793 37V19.4043H29.2793V37H31.2793ZM31.2791 19.425L31.4021 13.4836L29.4026 13.4422L29.2795 19.3836L31.2791 19.425ZM29.4467 13.1682L28.7963 15.2776L30.7076 15.8669L31.358 13.7575L29.4467 13.1682ZM28.8337 15.1763L20.238 35.1099L22.0745 35.9018L30.6702 15.9682L28.8337 15.1763ZM21.1562 34.5059H18.6953V36.5059H21.1562V34.5059ZM19.6122 35.1067L10.911 15.1204L9.07726 15.9187L17.7784 35.905L19.6122 35.1067ZM10.9452 15.2104L10.2596 13.1011L8.35756 13.7192L9.04311 15.8286L10.9452 15.2104ZM8.3088 13.4304L8.43185 19.5124L10.4314 19.472L10.3084 13.3899L8.3088 13.4304ZM8.43164 19.4922V37H10.4316V19.4922H8.43164ZM9.43164 36H7.19922V38H9.43164V36ZM43.7406 36.3848L43.3376 37.3L43.3434 37.3025L43.7406 36.3848ZM39.891 33.5195L39.1131 34.1479L39.1167 34.1524L39.891 33.5195ZM37.641 29.2305L36.6851 29.5241L36.687 29.5303L37.641 29.2305ZM38.309 16.9258L37.4063 16.4954L37.4052 16.4977L38.309 16.9258ZM56.6078 12.1797L57.4592 12.7043L57.9914 11.8406L57.1201 11.3209L56.6078 12.1797ZM55.5355 13.9199L55.0194 14.7764L55.8675 15.2875L56.3869 14.4445L55.5355 13.9199ZM45.0238 13.1816L45.4476 14.0874L45.4544 14.0842L45.0238 13.1816ZM41.8773 15.6777L41.0847 15.068L41.0805 15.0735L41.8773 15.6777ZM40.0141 19.3867L39.0584 19.0921L39.0562 19.0994L40.0141 19.3867ZM39.9613 28.4219L38.9988 28.6933L39.0017 28.7031L39.9613 28.4219ZM41.7367 32.0781L40.9283 32.6669L40.9357 32.6767L41.7367 32.0781ZM44.9008 34.6094L44.473 35.5133L44.4797 35.5164L44.9008 34.6094ZM55.5883 33.9941L56.5579 33.7494L56.2657 32.5919L55.1773 33.0825L55.5883 33.9941ZM56.0453 35.8047L56.5743 36.6533L57.1935 36.2674L57.0149 35.5599L56.0453 35.8047ZM49.102 36.4043C47.2116 36.4043 45.5632 36.084 44.1378 35.467L43.3434 37.3025C45.0587 38.0449 46.9845 38.4043 49.102 38.4043V36.4043ZM44.1436 35.4696C42.7043 34.8358 41.5528 33.9726 40.6653 32.8867L39.1167 34.1524C40.2214 35.5039 41.6363 36.5509 43.3377 37.3L44.1436 35.4696ZM40.669 32.8912C39.7707 31.7791 39.0767 30.4634 38.595 28.9306L36.687 29.5303C37.2365 31.2788 38.0426 32.8225 39.1131 34.1479L40.669 32.8912ZM38.5969 28.9369C38.126 27.4036 37.8852 25.7052 37.8852 23.834H35.8852C35.8852 25.8768 36.1482 27.7761 36.6851 29.5241L38.5969 28.9369ZM37.8852 23.834C37.8852 21.355 38.337 19.2027 39.2127 17.3539L37.4052 16.4977C36.3826 18.6567 35.8852 21.1098 35.8852 23.834H37.8852ZM39.2117 17.3561C40.0899 15.5139 41.3887 14.0662 43.1233 12.9955L42.0728 11.2936C40.0106 12.5666 38.4499 14.3064 37.4063 16.4954L39.2117 17.3561ZM43.1233 12.9955C44.8399 11.9358 46.8958 11.3867 49.3305 11.3867V9.38672C46.5855 9.38672 44.1531 10.0095 42.0728 11.2936L43.1233 12.9955ZM49.3305 11.3867C52.0375 11.3867 54.2774 11.954 56.0955 13.0385L57.1201 11.3209C54.9304 10.0147 52.3188 9.38672 49.3305 9.38672V11.3867ZM55.7564 11.6551L54.6842 13.3953L56.3869 14.4445L57.4592 12.7043L55.7564 11.6551ZM56.0517 13.0634C54.0559 11.8608 51.8124 11.2676 49.348 11.2676V13.2676C51.4774 13.2676 53.359 13.7759 55.0194 14.7764L56.0517 13.0634ZM49.348 11.2676C47.6137 11.2676 46.0221 11.5974 44.5933 12.2791L45.4544 14.0842C46.5802 13.5471 47.8715 13.2676 49.348 13.2676V11.2676ZM44.6 12.2759C43.185 12.9379 42.0073 13.8687 41.0847 15.068L42.67 16.2874C43.388 15.3539 44.3079 14.6207 45.4476 14.0874L44.6 12.2759ZM41.0805 15.0735C40.1946 16.2419 39.5231 17.5853 39.0585 19.0921L40.9697 19.6814C41.3723 18.3757 41.9429 17.2464 42.6742 16.2819L41.0805 15.0735ZM39.0562 19.0994C38.6033 20.6091 38.3813 22.2304 38.3813 23.957H40.3813C40.3813 22.4025 40.581 20.9769 40.9719 19.6741L39.0562 19.0994ZM38.3813 23.957C38.3813 25.6428 38.5843 27.2235 38.9989 28.6933L40.9238 28.1504C40.5649 26.878 40.3813 25.4822 40.3813 23.957H38.3813ZM39.0017 28.7031C39.4305 30.166 40.0714 31.49 40.9284 32.6668L42.5451 31.4894C41.8318 30.51 41.2891 29.3965 40.921 28.1406L39.0017 28.7031ZM40.9357 32.6767C41.8389 33.8854 43.0267 34.8289 44.473 35.5133L45.3285 33.7055C44.1498 33.1477 43.2283 32.4036 42.5378 31.4795L40.9357 32.6767ZM44.4797 35.5164C45.946 36.1972 47.6058 36.5234 49.4359 36.5234V34.5234C47.8442 34.5234 46.4806 34.2403 45.3219 33.7024L44.4797 35.5164ZM49.4359 36.5234C51.4577 36.5234 53.6509 35.9644 55.9992 34.9058L55.1773 33.0825C53.0022 34.063 51.0938 34.5234 49.4359 34.5234V36.5234ZM54.6187 34.2389L55.0757 36.0494L57.0149 35.5599L56.5579 33.7494L54.6187 34.2389ZM55.5164 34.956C54.02 35.8887 51.912 36.4043 49.102 36.4043V38.4043C52.1279 38.4043 54.6488 37.8535 56.5743 36.6533L55.5164 34.956ZM66.5359 36.7363L66.2122 37.6825L66.2222 37.6858L66.5359 36.7363ZM60.5945 31.9551L59.7346 32.4657L59.741 32.4762L60.5945 31.9551ZM59.0828 28.2637L58.1111 28.5003L58.1137 28.5102L59.0828 28.2637ZM60.0672 16.9961L60.9668 17.4329L60.9677 17.4308L60.0672 16.9961ZM64.4617 12.1621L63.9442 11.3064L63.9419 11.3078L64.4617 12.1621ZM79.2098 12.4082L80.0847 12.8924L80.5548 12.043L79.7197 11.548L79.2098 12.4082ZM78.2078 14.2188L77.6872 15.0725L78.5777 15.6156L79.0828 14.7029L78.2078 14.2188ZM74.9383 12.8125L74.6501 13.7701L74.6611 13.7733L74.9383 12.8125ZM66.8348 13.1816L66.4228 12.2705L66.4198 12.2718L66.8348 13.1816ZM63.5828 15.7129L64.3712 16.328L64.3745 16.3238L63.5828 15.7129ZM61.6844 19.4043L60.7294 19.1074L60.7272 19.1147L61.6844 19.4043ZM63.6531 32.3418L62.8878 32.9854L62.8914 32.9897L63.6531 32.3418ZM66.993 34.7148L66.6106 35.6389L66.6174 35.6417L66.993 34.7148ZM77.7859 34.2227L78.1548 35.1521L78.7859 34.9017V34.2227H77.7859ZM77.7859 25.8555H78.7859V24.8555H77.7859V25.8555ZM71.2996 25.8555L70.3022 25.7836L70.2249 26.8555H71.2996V25.8555ZM71.4402 23.9043V22.9043H70.5097L70.4428 23.8324L71.4402 23.9043ZM79.8777 23.9043H80.8777V22.9043H79.8777V23.9043ZM79.8777 35.4355L80.3366 36.3241L80.8777 36.0446V35.4355H79.8777ZM75.7117 36.9824L75.9177 37.961L75.9241 37.9596L75.7117 36.9824ZM70.948 36.4043C69.448 36.4043 68.0845 36.1949 66.8497 35.7868L66.2222 37.6858C67.6827 38.1684 69.2606 38.4043 70.948 38.4043V36.4043ZM66.8596 35.7902C65.6255 35.3679 64.5812 34.7912 63.7123 34.0689L62.4338 35.6069C63.5102 36.5018 64.7745 37.1906 66.2123 37.6825L66.8596 35.7902ZM63.7123 34.0689C62.8269 33.3328 62.0722 32.4564 61.448 31.434L59.741 32.4762C60.4762 33.6803 61.3739 34.7258 62.4338 35.6069L63.7123 34.0689ZM61.4544 31.4445C60.8379 30.4062 60.3695 29.2653 60.0519 28.0171L58.1137 28.5102C58.4759 29.9339 59.0153 31.254 59.7347 32.4656L61.4544 31.4445ZM60.0544 28.0271C59.7466 26.7629 59.5906 25.4189 59.5906 23.9922H57.5906C57.5906 25.5655 57.7628 27.0691 58.1112 28.5002L60.0544 28.0271ZM59.5906 23.9922C59.5906 21.4812 60.0588 19.3028 60.9668 17.4329L59.1676 16.5593C58.1068 18.7441 57.5906 21.2298 57.5906 23.9922H59.5906ZM60.9677 17.4308C61.8678 15.5665 63.1999 14.1004 64.9815 13.0164L63.9419 11.3078C61.8329 12.591 60.2353 14.3476 59.1666 16.5613L60.9677 17.4308ZM64.9792 13.0178C66.7555 11.9435 68.8845 11.3867 71.4051 11.3867V9.38672C68.5819 9.38672 66.082 10.0135 63.9442 11.3064L64.9792 13.0178ZM71.4051 11.3867C74.1753 11.3867 76.5971 12.022 78.6998 13.2684L79.7197 11.548C77.2756 10.0991 74.4942 9.38672 71.4051 9.38672V11.3867ZM78.3348 11.924L77.3329 13.7346L79.0828 14.7029L80.0847 12.8924L78.3348 11.924ZM78.7284 13.365C77.6825 12.7272 76.5091 12.2248 75.2154 11.8517L74.6611 13.7733C75.805 14.1033 76.8112 14.5384 77.6872 15.0725L78.7284 13.365ZM75.2265 11.8549C73.936 11.4665 72.667 11.2676 71.4227 11.2676V13.2676C72.4518 13.2676 73.5265 13.4319 74.6501 13.7701L75.2265 11.8549ZM71.4227 11.2676C69.5918 11.2676 67.9186 11.5941 66.4228 12.2705L67.2468 14.0928C68.4462 13.5505 69.8317 13.2676 71.4227 13.2676V11.2676ZM66.4198 12.2718C64.9477 12.9433 63.7302 13.8851 62.7911 15.1019L64.3745 16.3238C65.0995 15.3844 66.05 14.6387 67.2498 14.0915L66.4198 12.2718ZM62.7944 15.0978C61.8824 16.2667 61.196 17.6068 60.7295 19.1074L62.6393 19.7012C63.0399 18.4127 63.6192 17.2919 64.3712 16.328L62.7944 15.0978ZM60.7272 19.1147C60.2736 20.6141 60.0516 22.2305 60.0516 23.957H62.0516C62.0516 22.4023 62.2514 20.9835 62.6415 19.6939L60.7272 19.1147ZM60.0516 23.957C60.0516 25.7849 60.2784 27.4626 60.7463 28.9802L62.6576 28.3909C62.2583 27.096 62.0516 25.6213 62.0516 23.957H60.0516ZM60.7463 28.9802C61.2157 30.5025 61.9268 31.8426 62.8878 32.9854L64.4185 31.6982C63.6451 30.7785 63.0554 29.6811 62.6576 28.3909L60.7463 28.9802ZM62.8914 32.9897C63.8712 34.1417 65.1195 35.0218 66.6106 35.6389L67.3753 33.7908C66.1477 33.2829 65.1694 32.581 64.4148 31.6939L62.8914 32.9897ZM66.6174 35.6417C68.1187 36.2499 69.8208 36.541 71.7039 36.541V34.541C70.0245 34.541 68.586 34.2813 67.3685 33.788L66.6174 35.6417ZM71.7039 36.541C73.7013 36.541 75.8555 36.0645 78.1548 35.1521L77.4171 33.2932C75.2866 34.1386 73.3862 34.541 71.7039 34.541V36.541ZM78.7859 34.2227V25.8555H76.7859V34.2227H78.7859ZM77.7859 24.8555H71.2996V26.8555H77.7859V24.8555ZM72.297 25.9274L72.4376 23.9762L70.4428 23.8324L70.3022 25.7836L72.297 25.9274ZM71.4402 24.9043H79.8777V22.9043H71.4402V24.9043ZM78.8777 23.9043V35.4355H80.8777V23.9043H78.8777ZM79.4189 34.547C78.0545 35.2516 76.7484 35.7337 75.4993 36.0052L75.9241 37.9596C77.3703 37.6452 78.8416 37.0961 80.3366 36.3241L79.4189 34.547ZM75.5057 36.0039C74.2562 36.2669 72.7409 36.4043 70.948 36.4043V38.4043C72.8349 38.4043 74.4953 38.2604 75.9177 37.961L75.5057 36.0039Z" fill="white"/>
<rect x="0.5" y="0.5" width="87" height="47" stroke="white"/>
</svg>
